<svg width="223" height="51" viewBox="0 0 223 51" fill="none" xmlns="http://www.w3.org/2000/svg">
<g id="logo">
<g id="logo_icon">
<path id="Union" fill-rule="evenodd" clip-rule="evenodd" d="M32.2239 3.55018C32.2245 3.54989 32.2245 3.54909 32.2239 3.5488L26.0714 0.413933C25.7862 0.268608 25.4486 0.268608 25.1634 0.413933L11.6244 7.31217L4.23178 11.0787C3.50377 11.4497 3.50377 12.4898 4.23178 12.8607L13.7095 17.6899C13.9947 17.8352 14.3323 17.8352 14.6175 17.6899L21.556 14.1545C22.284 13.7836 22.284 12.7435 21.556 12.3725L19.9812 11.5702C19.2532 11.1992 19.2532 10.1591 19.9812 9.78814L25.4909 6.98081C25.7761 6.83549 26.1137 6.83549 26.3989 6.98081L49.2105 18.6039C49.8758 18.9429 50.6645 18.4596 50.6645 17.7129V13.5603C50.6645 13.1843 50.4535 12.84 50.1185 12.6693L32.2239 3.55155C32.2233 3.55127 32.2233 3.55046 32.2239 3.55018ZM31.9287 47.6555L26.105 50.6228C25.8198 50.7681 25.4823 50.7681 25.1971 50.6228L1.21056 38.4011C0.875507 38.2304 0.664551 37.8861 0.664551 37.5101V33.3575C0.664551 32.6108 1.45322 32.1275 2.11854 32.4664L24.8989 44.0736C25.1842 44.219 25.5217 44.219 25.8069 44.0736L31.2327 41.3091C31.9607 40.9381 31.9607 39.898 31.2327 39.5271L29.7311 38.7619C29.003 38.391 29.003 37.3508 29.7311 36.9799L36.6695 33.4446C36.9547 33.2992 37.2923 33.2992 37.5775 33.4446L42.1215 35.7599C42.1222 35.7602 42.123 35.7602 42.1237 35.7599C42.1243 35.7595 42.1251 35.7595 42.1258 35.7599L46.9517 38.2188C47.6797 38.5897 47.6797 39.6298 46.9517 40.0008L31.9287 47.6555ZM8.78048 20.5538C9.5085 20.1828 9.50849 19.1427 8.78048 18.7718L2.11854 15.3773C1.45322 15.0383 0.664551 15.5216 0.664551 16.2683V23.5084C0.664551 23.7805 0.817172 24.0296 1.05957 24.1531C1.26592 24.2582 1.51012 24.2582 1.71647 24.1531L8.78048 20.5538ZM42.2901 30.4704C41.5621 30.8413 41.5621 31.8815 42.2901 32.2524L49.2101 35.7783C49.8754 36.1173 50.6641 35.634 50.6641 34.8873V27.8054C50.6641 27.4363 50.457 27.0984 50.1282 26.9308C49.8482 26.7882 49.5169 26.7882 49.237 26.9308L42.2901 30.4704Z" fill="url(#paint0_linear_660_13506)"/>
<path id="Union_2" fill-rule="evenodd" clip-rule="evenodd" d="M29.0908 11.9586C28.8056 11.8133 28.468 11.8133 28.1828 11.9586L11.9336 20.238C11.2056 20.6089 11.2056 21.649 11.9336 22.02L33.9617 33.2438C34.2469 33.3891 34.5845 33.3891 34.8697 33.2438L49.9538 25.5581C50.2889 25.3874 50.4998 25.0431 50.4998 24.6671V23.4798C50.4998 23.1037 50.2889 22.7595 49.9538 22.5888L29.0908 11.9586ZM37.4107 23.5258C38.1387 23.8967 38.1387 24.9368 37.4107 25.3078L35.539 26.2614C35.2538 26.4068 34.9162 26.4068 34.631 26.2614L25.7654 21.7442C25.0374 21.3733 25.0374 20.3331 25.7654 19.9622L27.6371 19.0086C27.9223 18.8632 28.2598 18.8632 28.5451 19.0086L37.4107 23.5258ZM7.28561 22.6063C7.57083 22.461 7.90838 22.461 8.1936 22.6063L30.2219 33.8302C30.9499 34.2011 30.9499 35.2413 30.2218 35.6122L23.4914 39.0415C23.2062 39.1869 22.8686 39.1869 22.5834 39.0415L1.04552 28.0675C0.710469 27.8968 0.499512 27.5525 0.499512 27.1765V26.6768C0.499512 26.3007 0.710469 25.9565 1.04552 25.7858L7.28561 22.6063Z" fill="url(#paint1_linear_660_13506)"/>
</g>
<g id="Frame 4">
<g id="Frame 8">
<g id="Frame 5">
<path id="Vector" d="M66.0427 26C65.1025 26 64.1909 25.8148 63.3077 25.4444C62.4387 25.0741 61.6695 24.5481 61 23.8667L62.453 22.1111C62.9516 22.6 63.5214 23 64.1624 23.3111C64.8034 23.6074 65.4444 23.7556 66.0854 23.7556C66.8832 23.7556 67.4886 23.5852 67.9017 23.2444C68.3148 22.9037 68.5213 22.4519 68.5213 21.8889C68.5213 21.2815 68.3148 20.8444 67.9017 20.5778C67.5028 20.3111 66.99 20.037 66.3632 19.7556L64.4402 18.8889C63.9843 18.6815 63.5356 18.4148 63.094 18.0889C62.6667 17.763 62.3105 17.3481 62.0256 16.8444C61.755 16.3407 61.6197 15.7333 61.6197 15.0222C61.6197 14.2519 61.8191 13.563 62.2179 12.9556C62.631 12.3333 63.1866 11.8444 63.8846 11.4889C64.5969 11.1185 65.4088 10.9334 66.3205 10.9334C67.1325 10.9334 67.9159 11.1037 68.6709 11.4444C69.4259 11.7704 70.074 12.2148 70.6153 12.7778L69.3547 14.4222C68.9131 14.037 68.443 13.7333 67.9444 13.5111C67.4601 13.2889 66.9188 13.1778 66.3205 13.1778C65.6652 13.1778 65.131 13.3333 64.7179 13.6444C64.3191 13.9407 64.1196 14.3556 64.1196 14.8889C64.1196 15.2593 64.2194 15.5704 64.4188 15.8222C64.6325 16.0593 64.9102 16.2667 65.2521 16.4444C65.594 16.6074 65.9572 16.7704 66.3419 16.9333L68.2436 17.7556C69.0698 18.1259 69.7464 18.6148 70.2735 19.2222C70.8005 19.8148 71.0641 20.637 71.0641 21.6889C71.0641 22.4741 70.8646 23.1926 70.4658 23.8444C70.0669 24.4963 69.49 25.0222 68.735 25.4222C67.9943 25.8074 67.0968 26 66.0427 26Z" fill="white"/>
<path id="Vector_2" d="M77.3444 26C76.39 26 75.5282 25.7778 74.759 25.3333C74.004 24.8741 73.3986 24.2222 72.9427 23.3778C72.5011 22.5185 72.2803 21.4889 72.2803 20.2889C72.2803 19.0741 72.5225 18.0444 73.0068 17.2C73.4912 16.3407 74.1322 15.6889 74.9299 15.2444C75.7419 14.7852 76.6108 14.5556 77.5367 14.5556C78.2062 14.5556 78.7903 14.6741 79.2889 14.9111C79.7874 15.1481 80.229 15.437 80.6136 15.7778L79.4171 17.4444C79.1464 17.1926 78.8686 17 78.5837 16.8667C78.2988 16.7185 77.9926 16.6444 77.6649 16.6444C76.8245 16.6444 76.1336 16.9778 75.5923 17.6444C75.0652 18.3111 74.8017 19.1926 74.8017 20.2889C74.8017 21.3704 75.0581 22.2444 75.5709 22.9111C76.098 23.5778 76.7746 23.9111 77.6008 23.9111C78.0139 23.9111 78.3985 23.8222 78.7547 23.6444C79.125 23.4519 79.4598 23.2296 79.7589 22.9778L80.7632 24.6667C80.2789 25.1111 79.7376 25.4444 79.1393 25.6667C78.541 25.8889 77.9427 26 77.3444 26Z" fill="white"/>
<path id="Vector_3" d="M82.407 25.7333V14.8222H84.8642V25.7333H82.407ZM83.6463 12.9111C83.2047 12.9111 82.8486 12.7778 82.5779 12.5111C82.3072 12.2444 82.1719 11.8889 82.1719 11.4444C82.1719 11.0148 82.3072 10.6667 82.5779 10.4C82.8486 10.1334 83.2047 10 83.6463 10C84.0879 10 84.444 10.1334 84.7146 10.4C84.9853 10.6667 85.1206 11.0148 85.1206 11.4444C85.1206 11.8889 84.9853 12.2444 84.7146 12.5111C84.444 12.7778 84.0879 12.9111 83.6463 12.9111Z" fill="white"/>
<path id="Vector_4" d="M92.0586 26C91.09 26 90.2139 25.7778 89.4304 25.3333C88.647 24.8741 88.0273 24.2222 87.5715 23.3778C87.1156 22.5185 86.8877 21.4889 86.8877 20.2889C86.8877 19.1037 87.1156 18.0815 87.5715 17.2222C88.0416 16.363 88.647 15.7037 89.3877 15.2444C90.1284 14.7852 90.9048 14.5556 91.7167 14.5556C92.6712 14.5556 93.4689 14.7778 94.1099 15.2222C94.7509 15.6519 95.2353 16.2593 95.5629 17.0444C95.8905 17.8148 96.0543 18.7111 96.0543 19.7333C96.0543 20.2667 96.0187 20.6815 95.9475 20.9778H89.2809C89.3948 21.9407 89.7296 22.6889 90.2851 23.2222C90.8407 23.7556 91.5387 24.0222 92.3791 24.0222C92.835 24.0222 93.2552 23.9556 93.6398 23.8222C94.0387 23.6741 94.4304 23.4741 94.815 23.2222L95.6484 24.8222C95.1498 25.163 94.5942 25.4444 93.9817 25.6667C93.3692 25.8889 92.7281 26 92.0586 26ZM89.2595 19.2444H93.9176C93.9176 18.4 93.7395 17.7407 93.3834 17.2667C93.0273 16.7778 92.4931 16.5333 91.7809 16.5333C91.1683 16.5333 90.6199 16.7704 90.1356 17.2444C89.6655 17.7037 89.3735 18.3704 89.2595 19.2444Z" fill="white"/>
<path id="Vector_5" d="M97.9741 25.7333V14.8222H100.004L100.175 16.2889H100.26C100.731 15.8148 101.243 15.4074 101.799 15.0667C102.354 14.7259 102.988 14.5556 103.7 14.5556C104.826 14.5556 105.645 14.9333 106.158 15.6889C106.671 16.4444 106.927 17.5111 106.927 18.8889V25.7333H104.47V19.2222C104.47 18.3185 104.341 17.6815 104.085 17.3111C103.829 16.9407 103.408 16.7556 102.824 16.7556C102.369 16.7556 101.963 16.8741 101.607 17.1111C101.265 17.3333 100.873 17.6667 100.431 18.1111V25.7333H97.9741Z" fill="white"/>
<path id="Vector_6" d="M113.884 26C112.929 26 112.067 25.7778 111.298 25.3333C110.543 24.8741 109.938 24.2222 109.482 23.3778C109.04 22.5185 108.819 21.4889 108.819 20.2889C108.819 19.0741 109.062 18.0444 109.546 17.2C110.03 16.3407 110.671 15.6889 111.469 15.2444C112.281 14.7852 113.15 14.5556 114.076 14.5556C114.745 14.5556 115.329 14.6741 115.828 14.9111C116.327 15.1481 116.768 15.437 117.153 15.7778L115.956 17.4444C115.686 17.1926 115.408 17 115.123 16.8667C114.838 16.7185 114.532 16.6444 114.204 16.6444C113.364 16.6444 112.673 16.9778 112.131 17.6444C111.604 18.3111 111.341 19.1926 111.341 20.2889C111.341 21.3704 111.597 22.2444 112.11 22.9111C112.637 23.5778 113.314 23.9111 114.14 23.9111C114.553 23.9111 114.938 23.8222 115.294 23.6444C115.664 23.4519 115.999 23.2296 116.298 22.9778L117.302 24.6667C116.818 25.1111 116.277 25.4444 115.678 25.6667C115.08 25.8889 114.482 26 113.884 26Z" fill="white"/>
<path id="Vector_7" d="M122.911 26C121.943 26 121.067 25.7778 120.283 25.3333C119.5 24.8741 118.88 24.2222 118.424 23.3778C117.968 22.5185 117.74 21.4889 117.74 20.2889C117.74 19.1037 117.968 18.0815 118.424 17.2222C118.894 16.363 119.5 15.7037 120.24 15.2444C120.981 14.7852 121.757 14.5556 122.569 14.5556C123.524 14.5556 124.322 14.7778 124.963 15.2222C125.604 15.6519 126.088 16.2593 126.416 17.0444C126.743 17.8148 126.907 18.7111 126.907 19.7333C126.907 20.2667 126.871 20.6815 126.8 20.9778H120.134C120.247 21.9407 120.582 22.6889 121.138 23.2222C121.693 23.7556 122.391 24.0222 123.232 24.0222C123.688 24.0222 124.108 23.9556 124.492 23.8222C124.891 23.6741 125.283 23.4741 125.668 23.2222L126.501 24.8222C126.002 25.163 125.447 25.4444 124.834 25.6667C124.222 25.8889 123.581 26 122.911 26ZM120.112 19.2444H124.77C124.77 18.4 124.592 17.7407 124.236 17.2667C123.88 16.7778 123.346 16.5333 122.634 16.5333C122.021 16.5333 121.473 16.7704 120.988 17.2444C120.518 17.7037 120.226 18.3704 120.112 19.2444Z" fill="white"/>
</g>
<g id="Frame 6">
<path id="Vector_8" d="M134.188 25.7333V11.2H137.926C140.063 11.2 141.729 11.8 142.926 13C144.122 14.2 144.721 16 144.721 18.4C144.721 20.8148 144.13 22.6444 142.947 23.8889C141.765 25.1185 140.134 25.7333 138.054 25.7333H134.188ZM136.665 23.6444H137.755C139.165 23.6444 140.255 23.2222 141.024 22.3778C141.793 21.5185 142.178 20.1926 142.178 18.4C142.178 16.6222 141.793 15.3259 141.024 14.5111C140.255 13.6963 139.165 13.2889 137.755 13.2889H136.665V23.6444Z" fill="white"/>
<path id="Vector_9" d="M149.444 26C148.532 26 147.784 25.7037 147.2 25.1111C146.631 24.5185 146.346 23.7481 146.346 22.8C146.346 21.6296 146.837 20.7259 147.82 20.0889C148.803 19.437 150.37 18.9926 152.521 18.7556C152.507 18.1778 152.357 17.6815 152.072 17.2667C151.801 16.837 151.31 16.6222 150.598 16.6222C150.085 16.6222 149.579 16.7259 149.081 16.9333C148.596 17.1407 148.119 17.3926 147.649 17.6889L146.752 15.9778C147.336 15.5926 147.991 15.2593 148.717 14.9778C149.458 14.6963 150.242 14.5556 151.068 14.5556C152.378 14.5556 153.354 14.963 153.995 15.7778C154.65 16.5778 154.978 17.7407 154.978 19.2667V25.7333H152.948L152.777 24.5333H152.692C152.222 24.9481 151.716 25.2963 151.175 25.5778C150.648 25.8593 150.071 26 149.444 26ZM150.234 24C150.662 24 151.046 23.8963 151.388 23.6889C151.744 23.4667 152.122 23.1704 152.521 22.8V20.3556C151.096 20.5481 150.106 20.837 149.551 21.2222C148.995 21.5926 148.717 22.0519 148.717 22.6C148.717 23.0889 148.86 23.4444 149.145 23.6667C149.43 23.8889 149.793 24 150.234 24Z" fill="white"/>
<path id="Vector_10" d="M160.853 26C159.642 26 158.78 25.637 158.268 24.9111C157.769 24.1704 157.52 23.2148 157.52 22.0444V16.8444H156.024V14.9333L157.648 14.8222L157.947 11.8444H159.998V14.8222H162.669V16.8444H159.998V22.0444C159.998 23.3185 160.49 23.9556 161.473 23.9556C161.658 23.9556 161.85 23.9333 162.05 23.8889C162.249 23.8296 162.42 23.7704 162.562 23.7111L162.99 25.6C162.705 25.7037 162.377 25.7926 162.007 25.8667C161.651 25.9556 161.266 26 160.853 26Z" fill="white"/>
<path id="Vector_11" d="M166.534 26C165.623 26 164.875 25.7037 164.291 25.1111C163.721 24.5185 163.436 23.7481 163.436 22.8C163.436 21.6296 163.928 20.7259 164.911 20.0889C165.893 19.437 167.46 18.9926 169.611 18.7556C169.597 18.1778 169.448 17.6815 169.163 17.2667C168.892 16.837 168.401 16.6222 167.688 16.6222C167.176 16.6222 166.67 16.7259 166.171 16.9333C165.687 17.1407 165.21 17.3926 164.74 17.6889L163.842 15.9778C164.426 15.5926 165.082 15.2593 165.808 14.9778C166.549 14.6963 167.332 14.5556 168.158 14.5556C169.469 14.5556 170.445 14.963 171.086 15.7778C171.741 16.5778 172.069 17.7407 172.069 19.2667V25.7333H170.039L169.868 24.5333H169.782C169.312 24.9481 168.807 25.2963 168.265 25.5778C167.738 25.8593 167.161 26 166.534 26ZM167.325 24C167.752 24 168.137 23.8963 168.479 23.6889C168.835 23.4667 169.213 23.1704 169.611 22.8V20.3556C168.187 20.5481 167.197 20.837 166.641 21.2222C166.086 21.5926 165.808 22.0519 165.808 22.6C165.808 23.0889 165.95 23.4444 166.235 23.6667C166.52 23.8889 166.884 24 167.325 24Z" fill="white"/>
</g>
<g id="Frame 7">
<path id="Vector_12" d="M179.349 25.7334V11.2001H183.815C184.783 11.2001 185.638 11.3112 186.379 11.5334C187.134 11.7557 187.725 12.1334 188.152 12.6668C188.594 13.1853 188.815 13.889 188.815 14.7779C188.815 15.4594 188.644 16.1038 188.302 16.7112C187.96 17.3038 187.483 17.7112 186.87 17.9334V18.0223C187.64 18.2001 188.273 18.5779 188.772 19.1557C189.285 19.7186 189.541 20.489 189.541 21.4668C189.541 22.4297 189.306 23.2297 188.836 23.8668C188.38 24.5038 187.746 24.9779 186.934 25.289C186.122 25.5853 185.204 25.7334 184.178 25.7334H179.349ZM181.828 17.2001H183.601C184.57 17.2001 185.275 17.0149 185.716 16.6445C186.158 16.2742 186.379 15.7779 186.379 15.1557C186.379 14.4445 186.151 13.9408 185.695 13.6445C185.239 13.3482 184.556 13.2001 183.644 13.2001H181.828V17.2001ZM181.828 23.7334H183.922C184.947 23.7334 185.738 23.5408 186.293 23.1557C186.849 22.7557 187.127 22.1482 187.127 21.3334C187.127 20.5631 186.856 20.0075 186.315 19.6668C185.773 19.3112 184.976 19.1334 183.922 19.1334H181.828V23.7334Z" fill="white"/>
<path id="Vector_13" d="M194 26.0001C193.089 26.0001 192.341 25.7038 191.757 25.1112C191.187 24.5186 190.902 23.7482 190.902 22.8001C190.902 21.6297 191.393 20.726 192.376 20.089C193.359 19.4371 194.926 18.9927 197.077 18.7557C197.063 18.1779 196.913 17.6816 196.628 17.2668C196.358 16.8371 195.866 16.6223 195.154 16.6223C194.641 16.6223 194.136 16.726 193.637 16.9334C193.153 17.1408 192.675 17.3927 192.205 17.689L191.308 15.9779C191.892 15.5927 192.547 15.2594 193.274 14.9779C194.014 14.6964 194.798 14.5557 195.624 14.5557C196.935 14.5557 197.91 14.9631 198.551 15.7779C199.207 16.5779 199.534 17.7408 199.534 19.2668V25.7334H197.504L197.334 24.5334H197.248C196.778 24.9482 196.272 25.2964 195.731 25.5779C195.204 25.8594 194.627 26.0001 194 26.0001ZM194.791 24.0001C195.218 24.0001 195.603 23.8964 195.945 23.689C196.301 23.4668 196.678 23.1705 197.077 22.8001V20.3557C195.653 20.5482 194.663 20.8371 194.107 21.2223C193.551 21.5927 193.274 22.052 193.274 22.6001C193.274 23.089 193.416 23.4445 193.701 23.6668C193.986 23.889 194.349 24.0001 194.791 24.0001Z" fill="white"/>
<path id="Vector_14" d="M202.048 25.7334V14.8223H204.078L204.249 16.289H204.334C204.804 15.8149 205.317 15.4075 205.872 15.0668C206.428 14.726 207.062 14.5557 207.774 14.5557C208.9 14.5557 209.719 14.9334 210.231 15.689C210.744 16.4445 211.001 17.5112 211.001 18.889V25.7334H208.543V19.2223C208.543 18.3186 208.415 17.6816 208.159 17.3112C207.902 16.9408 207.482 16.7557 206.898 16.7557C206.442 16.7557 206.036 16.8742 205.68 17.1112C205.338 17.3334 204.947 17.6668 204.505 18.1112V25.7334H202.048Z" fill="white"/>
<path id="Vector_15" d="M213.577 25.7335V10.0446H215.991V19.8446H216.056L219.944 14.8224H222.637L219.047 19.2669L223 25.7335H220.329L217.637 21.0002L215.991 22.9558V25.7335H213.577Z" fill="white"/>
</g>
</g>
<path id="10th Anniversary Celebrations" d="M64.8232 41H63.6709V36.4053C63.6709 36.2523 63.6725 36.0993 63.6758 35.9463C63.679 35.7933 63.6823 35.6436 63.6855 35.4971C63.6921 35.3506 63.7002 35.2106 63.71 35.0772C63.6416 35.152 63.557 35.2334 63.4561 35.3213C63.3584 35.4092 63.2542 35.5003 63.1436 35.5947L62.3232 36.249L61.7471 35.5215L63.8662 33.8614H64.8232V41ZM71.7059 37.4258C71.7059 38.002 71.6603 38.5179 71.5691 38.9737C71.4812 39.4261 71.3413 39.8102 71.1492 40.126C70.9572 40.4418 70.7065 40.6826 70.3973 40.8487C70.088 41.0147 69.7137 41.0977 69.2742 41.0977C68.7241 41.0977 68.27 40.9528 67.9119 40.6631C67.5538 40.3701 67.2885 39.9502 67.116 39.4033C66.9435 38.8532 66.8572 38.194 66.8572 37.4258C66.8572 36.6576 66.9354 36 67.0916 35.4531C67.2511 34.903 67.5083 34.4815 67.8631 34.1885C68.2179 33.8955 68.6883 33.749 69.2742 33.749C69.8276 33.749 70.2833 33.8955 70.6414 34.1885C71.0027 34.4782 71.2697 34.8981 71.4422 35.4483C71.618 35.9951 71.7059 36.6543 71.7059 37.4258ZM68.0145 37.4258C68.0145 38.028 68.0535 38.5309 68.1316 38.9346C68.213 39.3382 68.3465 39.641 68.532 39.8428C68.7176 40.0414 68.965 40.1406 69.2742 40.1406C69.5835 40.1406 69.8309 40.0414 70.0164 39.8428C70.202 39.6442 70.3354 39.3431 70.4168 38.9395C70.5014 38.5358 70.5437 38.0313 70.5437 37.4258C70.5437 36.8268 70.5031 36.3255 70.4217 35.9219C70.3403 35.5183 70.2068 35.2155 70.0213 35.0137C69.8357 34.8086 69.5867 34.7061 69.2742 34.7061C68.9617 34.7061 68.7127 34.8086 68.5271 35.0137C68.3449 35.2155 68.213 35.5183 68.1316 35.9219C68.0535 36.3255 68.0145 36.8268 68.0145 37.4258ZM74.6773 40.1699C74.8271 40.1699 74.9752 40.1569 75.1217 40.1309C75.2682 40.1016 75.4016 40.0674 75.5221 40.0283V40.8975C75.3951 40.9528 75.2307 41 75.0289 41.0391C74.8271 41.0781 74.6171 41.0977 74.399 41.0977C74.093 41.0977 73.818 41.0472 73.5738 40.9463C73.3297 40.8421 73.136 40.6647 72.9928 40.4141C72.8495 40.1634 72.7779 39.8168 72.7779 39.374V36.4688H72.0406V35.9561L72.8316 35.5508L73.2076 34.3936H73.9303V35.5947H75.4781V36.4688H73.9303V39.3594C73.9303 39.6328 73.9986 39.8363 74.1354 39.9697C74.2721 40.1032 74.4527 40.1699 74.6773 40.1699ZM77.4682 33.4024V35.3115C77.4682 35.5101 77.4617 35.7038 77.4486 35.8926C77.4389 36.0814 77.4275 36.2279 77.4145 36.3321H77.4779C77.5919 36.1433 77.7318 35.9886 77.8979 35.8682C78.0639 35.7445 78.2494 35.6517 78.4545 35.5899C78.6628 35.528 78.8842 35.4971 79.1186 35.4971C79.532 35.4971 79.8835 35.5671 80.1732 35.7071C80.463 35.8438 80.6843 36.057 80.8373 36.3467C80.9936 36.6364 81.0717 37.0124 81.0717 37.4746V41H79.9242V37.6895C79.9242 37.2696 79.838 36.9554 79.6654 36.7471C79.4929 36.5355 79.226 36.4297 78.8646 36.4297C78.5163 36.4297 78.2396 36.503 78.0346 36.6494C77.8327 36.7927 77.6879 37.0059 77.6 37.2891C77.5121 37.569 77.4682 37.9108 77.4682 38.3145V41H76.3207V33.4024H77.4682ZM89.2168 41L88.5186 39.0176H85.7891L85.0908 41H83.8555L86.5117 33.8321H87.8105L90.4619 41H89.2168ZM88.2158 38.0117L87.5371 36.0586C87.5111 35.974 87.4736 35.8552 87.4248 35.7022C87.376 35.5459 87.3271 35.388 87.2783 35.2285C87.2295 35.0658 87.1888 34.9291 87.1562 34.8184C87.1237 34.9518 87.083 35.1016 87.0342 35.2676C86.9886 35.4304 86.943 35.5834 86.8975 35.7266C86.8551 35.8698 86.8226 35.9805 86.7998 36.0586L86.1162 38.0117H88.2158ZM93.8045 35.4922C94.4132 35.4922 94.8868 35.6501 95.2254 35.9658C95.5672 36.2783 95.7381 36.7813 95.7381 37.4746V41H94.5906V37.6895C94.5906 37.2696 94.5044 36.9554 94.3318 36.7471C94.1593 36.5355 93.8924 36.4297 93.5311 36.4297C93.007 36.4297 92.6424 36.5908 92.4373 36.9131C92.2355 37.2354 92.1346 37.7025 92.1346 38.3145V41H90.9871V35.5947H91.8807L92.0418 36.3272H92.1053C92.2225 36.1384 92.3673 35.9837 92.5398 35.8633C92.7156 35.7396 92.9109 35.6468 93.1258 35.585C93.3439 35.5231 93.5701 35.4922 93.8045 35.4922ZM99.8619 35.4922C100.471 35.4922 100.944 35.6501 101.283 35.9658C101.625 36.2783 101.796 36.7813 101.796 37.4746V41H100.648V37.6895C100.648 37.2696 100.562 36.9554 100.389 36.7471C100.217 36.5355 99.9498 36.4297 99.5885 36.4297C99.0644 36.4297 98.6998 36.5908 98.4947 36.9131C98.2929 37.2354 98.192 37.7025 98.192 38.3145V41H97.0445V35.5947H97.9381L98.0992 36.3272H98.1627C98.2799 36.1384 98.4247 35.9837 98.5973 35.8633C98.773 35.7396 98.9684 35.6468 99.1832 35.585C99.4013 35.5231 99.6275 35.4922 99.8619 35.4922ZM104.249 35.5947V41H103.102V35.5947H104.249ZM103.683 33.5244C103.859 33.5244 104.01 33.5716 104.137 33.666C104.267 33.7604 104.332 33.9232 104.332 34.1543C104.332 34.3822 104.267 34.5449 104.137 34.6426C104.01 34.737 103.859 34.7842 103.683 34.7842C103.501 34.7842 103.346 34.737 103.219 34.6426C103.095 34.5449 103.034 34.3822 103.034 34.1543C103.034 33.9232 103.095 33.7604 103.219 33.666C103.346 33.5716 103.501 33.5244 103.683 33.5244ZM106.83 41L104.775 35.5947H105.99L107.104 38.7686C107.175 38.9704 107.24 39.1885 107.299 39.4229C107.358 39.6572 107.398 39.8542 107.421 40.0137H107.46C107.483 39.8477 107.527 39.6491 107.592 39.418C107.657 39.1836 107.724 38.9671 107.792 38.7686L108.905 35.5947H110.116L108.061 41H106.83ZM112.79 35.4922C113.272 35.4922 113.685 35.5915 114.03 35.7901C114.375 35.9886 114.641 36.2702 114.826 36.6348C115.012 36.9994 115.104 37.4356 115.104 37.9434V38.5586H111.496C111.509 39.0827 111.649 39.4864 111.916 39.7696C112.186 40.0528 112.564 40.1944 113.049 40.1944C113.394 40.1944 113.703 40.1618 113.977 40.0967C114.253 40.0283 114.538 39.9291 114.831 39.7989V40.7315C114.561 40.8584 114.286 40.9512 114.006 41.0098C113.726 41.0684 113.391 41.0977 113 41.0977C112.469 41.0977 112.002 40.9951 111.599 40.7901C111.198 40.5817 110.884 40.2725 110.656 39.8623C110.432 39.4522 110.319 38.9427 110.319 38.334C110.319 37.7285 110.422 37.2142 110.627 36.791C110.832 36.3679 111.12 36.0456 111.491 35.8242C111.862 35.6029 112.295 35.4922 112.79 35.4922ZM112.79 36.3565C112.429 36.3565 112.136 36.4737 111.911 36.708C111.69 36.9424 111.56 37.2858 111.521 37.7383H113.981C113.978 37.4681 113.933 37.2289 113.845 37.0205C113.76 36.8122 113.63 36.6494 113.454 36.5322C113.282 36.4151 113.06 36.3565 112.79 36.3565ZM118.838 35.4922C118.929 35.4922 119.028 35.4971 119.136 35.5069C119.243 35.5166 119.336 35.5296 119.414 35.5459L119.306 36.6201C119.238 36.6006 119.153 36.586 119.053 36.5762C118.955 36.5664 118.867 36.5615 118.789 36.5615C118.584 36.5615 118.388 36.5957 118.203 36.6641C118.017 36.7292 117.853 36.8301 117.71 36.9668C117.567 37.1003 117.454 37.2679 117.373 37.4697C117.291 37.6716 117.251 37.9059 117.251 38.1729V41H116.098V35.5947H116.997L117.153 36.5469H117.207C117.314 36.3548 117.448 36.1791 117.607 36.0196C117.767 35.86 117.949 35.7331 118.154 35.6387C118.362 35.541 118.59 35.4922 118.838 35.4922ZM123.748 39.4571C123.748 39.8119 123.661 40.1114 123.489 40.3555C123.316 40.5996 123.064 40.7852 122.732 40.9121C122.403 41.0358 122 41.0977 121.521 41.0977C121.143 41.0977 120.818 41.07 120.545 41.0147C120.274 40.9626 120.019 40.8812 119.778 40.7705V39.7793C120.035 39.8998 120.323 40.0039 120.642 40.0918C120.964 40.1797 121.269 40.2237 121.555 40.2237C121.933 40.2237 122.205 40.1651 122.371 40.0479C122.537 39.9274 122.62 39.7679 122.62 39.5694C122.62 39.4522 122.586 39.348 122.517 39.2569C122.452 39.1625 122.328 39.0664 122.146 38.9688C121.967 38.8679 121.703 38.7474 121.355 38.6074C121.013 38.4707 120.725 38.334 120.491 38.1973C120.256 38.0606 120.079 37.8962 119.959 37.7041C119.838 37.5088 119.778 37.2598 119.778 36.9571C119.778 36.4785 119.967 36.1156 120.344 35.8682C120.725 35.6175 121.228 35.4922 121.853 35.4922C122.185 35.4922 122.498 35.5264 122.791 35.5947C123.087 35.6599 123.377 35.7559 123.66 35.8828L123.298 36.7471C123.054 36.6397 122.809 36.5518 122.561 36.4834C122.317 36.4118 122.068 36.376 121.814 36.376C121.518 36.376 121.292 36.4216 121.135 36.5127C120.982 36.6039 120.906 36.7341 120.906 36.9033C120.906 37.0303 120.943 37.1377 121.018 37.2256C121.093 37.3135 121.222 37.4014 121.404 37.4893C121.589 37.5772 121.847 37.6862 122.175 37.8164C122.498 37.9401 122.776 38.0703 123.01 38.2071C123.248 38.3405 123.43 38.5049 123.557 38.7002C123.684 38.8955 123.748 39.1478 123.748 39.4571ZM126.807 35.4922C127.491 35.4922 128.007 35.6436 128.355 35.9463C128.706 36.249 128.882 36.7211 128.882 37.3623V41H128.067L127.847 40.2334H127.808C127.655 40.4287 127.497 40.5899 127.334 40.7168C127.172 40.8438 126.983 40.9382 126.768 41C126.556 41.0651 126.298 41.0977 125.992 41.0977C125.669 41.0977 125.381 41.0391 125.127 40.9219C124.873 40.8015 124.673 40.6192 124.527 40.375C124.38 40.1309 124.307 39.8216 124.307 39.4473C124.307 38.8906 124.514 38.4724 124.927 38.1924C125.344 37.9125 125.972 37.7578 126.812 37.7285L127.749 37.6944V37.4112C127.749 37.0368 127.662 36.7699 127.486 36.6104C127.313 36.4509 127.069 36.3711 126.753 36.3711C126.483 36.3711 126.221 36.4102 125.967 36.4883C125.713 36.5664 125.466 36.6625 125.225 36.7764L124.854 35.9658C125.118 35.8259 125.417 35.7119 125.752 35.624C126.091 35.5362 126.442 35.4922 126.807 35.4922ZM127.745 38.417L127.046 38.4414C126.473 38.461 126.071 38.5586 125.84 38.7344C125.609 38.9102 125.494 39.1511 125.494 39.4571C125.494 39.724 125.573 39.9193 125.733 40.043C125.892 40.1634 126.102 40.2237 126.363 40.2237C126.76 40.2237 127.089 40.1114 127.349 39.8867C127.613 39.6589 127.745 39.3252 127.745 38.8858V38.417ZM132.928 35.4922C133.019 35.4922 133.118 35.4971 133.226 35.5069C133.333 35.5166 133.426 35.5296 133.504 35.5459L133.397 36.6201C133.328 36.6006 133.244 36.586 133.143 36.5762C133.045 36.5664 132.957 36.5615 132.879 36.5615C132.674 36.5615 132.479 36.5957 132.293 36.6641C132.108 36.7292 131.943 36.8301 131.8 36.9668C131.657 37.1003 131.544 37.2679 131.463 37.4697C131.382 37.6716 131.341 37.9059 131.341 38.1729V41H130.189V35.5947H131.087L131.243 36.5469H131.297C131.404 36.3548 131.538 36.1791 131.697 36.0196C131.857 35.86 132.039 35.7331 132.244 35.6387C132.453 35.541 132.681 35.4922 132.928 35.4922ZM133.39 35.5947H134.64L135.748 38.6807C135.797 38.8207 135.841 38.959 135.88 39.0957C135.922 39.2292 135.958 39.361 135.987 39.4912C136.02 39.6214 136.046 39.7517 136.065 39.8819H136.095C136.127 39.7126 136.173 39.5238 136.231 39.3155C136.293 39.1039 136.362 38.8923 136.437 38.6807L137.501 35.5947H138.736L136.417 41.7422C136.284 42.0938 136.119 42.3933 135.924 42.6406C135.732 42.8913 135.504 43.0801 135.24 43.2071C134.977 43.3373 134.675 43.4024 134.337 43.4024C134.174 43.4024 134.033 43.3926 133.912 43.3731C133.792 43.3568 133.689 43.3389 133.604 43.3194V42.4014C133.673 42.4177 133.759 42.4323 133.863 42.4453C133.967 42.4584 134.075 42.4649 134.186 42.4649C134.391 42.4649 134.568 42.4242 134.718 42.3428C134.868 42.2614 134.994 42.1459 135.099 41.9961C135.203 41.8496 135.289 41.682 135.357 41.4932L135.548 40.9854L133.39 35.5947ZM144.713 34.7549C144.372 34.7549 144.066 34.8168 143.796 34.9405C143.529 35.0642 143.302 35.2432 143.117 35.4776C142.931 35.7087 142.79 35.9903 142.692 36.3223C142.594 36.6511 142.546 37.0222 142.546 37.4356C142.546 37.989 142.624 38.4658 142.78 38.8662C142.936 39.2634 143.174 39.5694 143.493 39.7842C143.812 39.9958 144.215 40.1016 144.704 40.1016C145.006 40.1016 145.301 40.0723 145.588 40.0137C145.874 39.9551 146.17 39.8753 146.476 39.7744V40.7705C146.186 40.8845 145.893 40.9675 145.597 41.0196C145.301 41.0716 144.959 41.0977 144.572 41.0977C143.843 41.0977 143.237 40.9463 142.755 40.6436C142.277 40.3408 141.919 39.9144 141.681 39.3643C141.447 38.8142 141.33 38.1696 141.33 37.4307C141.33 36.8903 141.405 36.3955 141.554 35.9463C141.704 35.4971 141.922 35.1097 142.209 34.7842C142.495 34.4554 142.848 34.2031 143.268 34.0274C143.691 33.8483 144.175 33.7588 144.718 33.7588C145.076 33.7588 145.428 33.7995 145.773 33.8809C146.121 33.959 146.444 34.0713 146.74 34.2178L146.33 35.1846C146.082 35.0674 145.824 34.9665 145.553 34.8819C145.283 34.7972 145.003 34.7549 144.713 34.7549ZM149.746 35.4922C150.227 35.4922 150.641 35.5915 150.986 35.7901C151.331 35.9886 151.596 36.2702 151.782 36.6348C151.967 36.9994 152.06 37.4356 152.06 37.9434V38.5586H148.452C148.465 39.0827 148.605 39.4864 148.871 39.7696C149.142 40.0528 149.519 40.1944 150.004 40.1944C150.349 40.1944 150.659 40.1618 150.932 40.0967C151.209 40.0283 151.494 39.9291 151.787 39.7989V40.7315C151.516 40.8584 151.241 40.9512 150.961 41.0098C150.681 41.0684 150.346 41.0977 149.955 41.0977C149.425 41.0977 148.958 40.9951 148.554 40.7901C148.154 40.5817 147.84 40.2725 147.612 39.8623C147.387 39.4522 147.275 38.9427 147.275 38.334C147.275 37.7285 147.377 37.2142 147.582 36.791C147.787 36.3679 148.076 36.0456 148.447 35.8242C148.818 35.6029 149.251 35.4922 149.746 35.4922ZM149.746 36.3565C149.384 36.3565 149.091 36.4737 148.867 36.708C148.645 36.9424 148.515 37.2858 148.476 37.7383H150.937C150.934 37.4681 150.888 37.2289 150.8 37.0205C150.716 36.8122 150.585 36.6494 150.41 36.5322C150.237 36.4151 150.016 36.3565 149.746 36.3565ZM154.206 41H153.054V33.4024H154.206V41ZM157.7 35.4922C158.182 35.4922 158.595 35.5915 158.94 35.7901C159.285 35.9886 159.551 36.2702 159.736 36.6348C159.922 36.9994 160.015 37.4356 160.015 37.9434V38.5586H156.406C156.419 39.0827 156.559 39.4864 156.826 39.7696C157.096 40.0528 157.474 40.1944 157.959 40.1944C158.304 40.1944 158.613 40.1618 158.887 40.0967C159.163 40.0283 159.448 39.9291 159.741 39.7989V40.7315C159.471 40.8584 159.196 40.9512 158.916 41.0098C158.636 41.0684 158.301 41.0977 157.91 41.0977C157.38 41.0977 156.912 40.9951 156.509 40.7901C156.108 40.5817 155.794 40.2725 155.566 39.8623C155.342 39.4522 155.229 38.9427 155.229 38.334C155.229 37.7285 155.332 37.2142 155.537 36.791C155.742 36.3679 156.03 36.0456 156.401 35.8242C156.772 35.6029 157.205 35.4922 157.7 35.4922ZM157.7 36.3565C157.339 36.3565 157.046 36.4737 156.821 36.708C156.6 36.9424 156.47 37.2858 156.431 37.7383H158.892C158.888 37.4681 158.843 37.2289 158.755 37.0205C158.67 36.8122 158.54 36.6494 158.364 36.5322C158.192 36.4151 157.97 36.3565 157.7 36.3565ZM162.156 33.4024V35.2334C162.156 35.445 162.15 35.6533 162.137 35.8584C162.127 36.0602 162.117 36.2181 162.107 36.3321H162.156C162.303 36.0977 162.506 35.9007 162.766 35.7412C163.03 35.5785 163.367 35.4971 163.777 35.4971C164.418 35.4971 164.934 35.7331 165.325 36.2051C165.716 36.6739 165.911 37.3688 165.911 38.2901C165.911 38.902 165.821 39.4164 165.642 39.833C165.463 40.2497 165.211 40.5655 164.886 40.7803C164.563 40.9919 164.184 41.0977 163.748 41.0977C163.338 41.0977 163.006 41.0228 162.752 40.8731C162.501 40.7201 162.304 40.5427 162.161 40.3408H162.078L161.868 41H161.009V33.4024H162.156ZM163.474 36.4297C163.149 36.4297 162.89 36.4948 162.698 36.625C162.509 36.7552 162.373 36.9505 162.288 37.211C162.203 37.4681 162.159 37.7953 162.156 38.1924V38.2949C162.156 38.8972 162.25 39.3578 162.439 39.6768C162.631 39.9958 162.98 40.1553 163.484 40.1553C163.885 40.1553 164.192 39.9942 164.407 39.6719C164.622 39.3464 164.729 38.8809 164.729 38.2754C164.729 37.6634 164.622 37.2028 164.407 36.8936C164.195 36.5843 163.885 36.4297 163.474 36.4297ZM169.678 35.4922C169.769 35.4922 169.869 35.4971 169.976 35.5069C170.084 35.5166 170.176 35.5296 170.254 35.5459L170.147 36.6201C170.079 36.6006 169.994 36.586 169.893 36.5762C169.796 36.5664 169.708 36.5615 169.629 36.5615C169.424 36.5615 169.229 36.5957 169.044 36.6641C168.858 36.7292 168.694 36.8301 168.55 36.9668C168.407 37.1003 168.295 37.2679 168.213 37.4697C168.132 37.6716 168.091 37.9059 168.091 38.1729V41H166.939V35.5947H167.838L167.994 36.5469H168.047C168.155 36.3548 168.288 36.1791 168.448 36.0196C168.607 35.86 168.79 35.7331 168.995 35.6387C169.203 35.541 169.431 35.4922 169.678 35.4922ZM173.075 35.4922C173.758 35.4922 174.274 35.6436 174.622 35.9463C174.974 36.249 175.15 36.7211 175.15 37.3623V41H174.334L174.115 40.2334H174.076C173.923 40.4287 173.765 40.5899 173.602 40.7168C173.439 40.8438 173.25 40.9382 173.036 41C172.824 41.0651 172.565 41.0977 172.259 41.0977C171.937 41.0977 171.649 41.0391 171.395 40.9219C171.141 40.8015 170.941 40.6192 170.794 40.375C170.648 40.1309 170.575 39.8216 170.575 39.4473C170.575 38.8906 170.781 38.4724 171.195 38.1924C171.611 37.9125 172.24 37.7578 173.079 37.7285L174.017 37.6944V37.4112C174.017 37.0368 173.929 36.7699 173.753 36.6104C173.581 36.4509 173.337 36.3711 173.021 36.3711C172.751 36.3711 172.489 36.4102 172.235 36.4883C171.981 36.5664 171.733 36.6625 171.493 36.7764L171.121 35.9658C171.385 35.8259 171.685 35.7119 172.02 35.624C172.358 35.5362 172.71 35.4922 173.075 35.4922ZM174.012 38.417L173.314 38.4414C172.741 38.461 172.339 38.5586 172.108 38.7344C171.877 38.9102 171.761 39.1511 171.761 39.4571C171.761 39.724 171.841 39.9193 172 40.043C172.16 40.1634 172.37 40.2237 172.63 40.2237C173.027 40.2237 173.356 40.1114 173.617 39.8867C173.88 39.6589 174.012 39.3252 174.012 38.8858V38.417ZM178.468 40.1699C178.618 40.1699 178.766 40.1569 178.912 40.1309C179.059 40.1016 179.192 40.0674 179.313 40.0283V40.8975C179.186 40.9528 179.021 41 178.82 41.0391C178.618 41.0781 178.408 41.0977 178.19 41.0977C177.884 41.0977 177.609 41.0472 177.364 40.9463C177.12 40.8421 176.927 40.6647 176.783 40.4141C176.64 40.1634 176.569 39.8168 176.569 39.374V36.4688H175.831V35.9561L176.622 35.5508L176.998 34.3936H177.721V35.5947H179.269V36.4688H177.721V39.3594C177.721 39.6328 177.789 39.8363 177.926 39.9697C178.063 40.1032 178.243 40.1699 178.468 40.1699ZM181.259 35.5947V41H180.111V35.5947H181.259ZM180.692 33.5244C180.868 33.5244 181.02 33.5716 181.146 33.666C181.277 33.7604 181.342 33.9232 181.342 34.1543C181.342 34.3822 181.277 34.5449 181.146 34.6426C181.02 34.737 180.868 34.7842 180.692 34.7842C180.51 34.7842 180.355 34.737 180.229 34.6426C180.105 34.5449 180.043 34.3822 180.043 34.1543C180.043 33.9232 180.105 33.7604 180.229 33.666C180.355 33.5716 180.51 33.5244 180.692 33.5244ZM187.389 38.2852C187.389 38.7344 187.331 39.1332 187.214 39.4815C187.096 39.8298 186.926 40.1244 186.701 40.3653C186.476 40.6029 186.206 40.7852 185.89 40.9121C185.575 41.0358 185.218 41.0977 184.821 41.0977C184.45 41.0977 184.11 41.0358 183.801 40.9121C183.491 40.7852 183.223 40.6029 182.995 40.3653C182.77 40.1244 182.596 39.8298 182.472 39.4815C182.349 39.1332 182.287 38.7344 182.287 38.2852C182.287 37.6895 182.389 37.1849 182.595 36.7715C182.803 36.3548 183.099 36.0375 183.483 35.8194C183.867 35.6013 184.325 35.4922 184.855 35.4922C185.353 35.4922 185.793 35.6013 186.174 35.8194C186.554 36.0375 186.852 36.3548 187.067 36.7715C187.282 37.1882 187.389 37.6927 187.389 38.2852ZM183.469 38.2852C183.469 38.6791 183.516 39.016 183.61 39.2959C183.708 39.5759 183.858 39.7907 184.059 39.9405C184.261 40.0869 184.522 40.1602 184.841 40.1602C185.16 40.1602 185.42 40.0869 185.622 39.9405C185.824 39.7907 185.972 39.5759 186.066 39.2959C186.161 39.016 186.208 38.6791 186.208 38.2852C186.208 37.8913 186.161 37.5576 186.066 37.2842C185.972 37.0075 185.824 36.7975 185.622 36.6543C185.42 36.5078 185.158 36.4346 184.836 36.4346C184.36 36.4346 184.014 36.5941 183.796 36.9131C183.578 37.2321 183.469 37.6895 183.469 38.2852ZM191.225 35.4922C191.834 35.4922 192.308 35.6501 192.646 35.9658C192.988 36.2783 193.159 36.7813 193.159 37.4746V41H192.011V37.6895C192.011 37.2696 191.925 36.9554 191.753 36.7471C191.58 36.5355 191.313 36.4297 190.952 36.4297C190.428 36.4297 190.063 36.5908 189.858 36.9131C189.656 37.2354 189.555 37.7025 189.555 38.3145V41H188.408V35.5947H189.301L189.463 36.3272H189.526C189.643 36.1384 189.788 35.9837 189.961 35.8633C190.136 35.7396 190.332 35.6468 190.546 35.585C190.765 35.5231 190.991 35.4922 191.225 35.4922ZM198.098 39.4571C198.098 39.8119 198.012 40.1114 197.839 40.3555C197.667 40.5996 197.414 40.7852 197.082 40.9121C196.754 41.0358 196.35 41.0977 195.871 41.0977C195.494 41.0977 195.168 41.07 194.895 41.0147C194.625 40.9626 194.369 40.8812 194.128 40.7705V39.7793C194.385 39.8998 194.674 40.0039 194.993 40.0918C195.315 40.1797 195.619 40.2237 195.906 40.2237C196.283 40.2237 196.555 40.1651 196.721 40.0479C196.887 39.9274 196.97 39.7679 196.97 39.5694C196.97 39.4522 196.936 39.348 196.868 39.2569C196.802 39.1625 196.679 39.0664 196.496 38.9688C196.317 38.8679 196.054 38.7474 195.705 38.6074C195.364 38.4707 195.076 38.334 194.841 38.1973C194.607 38.0606 194.429 37.8962 194.309 37.7041C194.189 37.5088 194.128 37.2598 194.128 36.9571C194.128 36.4785 194.317 36.1156 194.695 35.8682C195.076 35.6175 195.579 35.4922 196.204 35.4922C196.536 35.4922 196.848 35.5264 197.141 35.5947C197.437 35.6599 197.727 35.7559 198.01 35.8828L197.649 36.7471C197.405 36.6397 197.159 36.5518 196.912 36.4834C196.667 36.4118 196.418 36.376 196.164 36.376C195.868 36.376 195.642 36.4216 195.486 36.5127C195.333 36.6039 195.256 36.7341 195.256 36.9033C195.256 37.0303 195.294 37.1377 195.369 37.2256C195.443 37.3135 195.572 37.4014 195.754 37.4893C195.94 37.5772 196.197 37.6862 196.526 37.8164C196.848 37.9401 197.126 38.0703 197.361 38.2071C197.598 38.3405 197.781 38.5049 197.908 38.7002C198.035 38.8955 198.098 39.1478 198.098 39.4571Z" fill="white"/>
</g>
</g>
<defs>
<linearGradient id="paint0_linear_660_13506" x1="9.92379" y1="-7.41346" x2="56.1454" y2="45.9877" gradientUnits="userSpaceOnUse">
<stop stop-color="#7F685A"/>
<stop offset="1" stop-color="#B79381"/>
</linearGradient>
<linearGradient id="paint1_linear_660_13506" x1="9.75883" y1="7.67089" x2="29.1898" y2="49.1365" gradientUnits="userSpaceOnUse">
<stop stop-color="#C38642"/>
<stop offset="1" stop-color="#F2DC91"/>
</linearGradient>
</defs>
</svg>
